<?xml version="1.0" encoding="UTF-8" standalone="no"?>
<!-- Created with Inkscape (http://www.inkscape.org/) -->

<svg
   xmlns:dc="http://purl.org/dc/elements/1.1/"
   xmlns:cc="http://creativecommons.org/ns#"
   xmlns:rdf="http://www.w3.org/1999/02/22-rdf-syntax-ns#"
   xmlns:svg="http://www.w3.org/2000/svg"
   xmlns="http://www.w3.org/2000/svg"
   xmlns:sodipodi="http://sodipodi.sourceforge.net/DTD/sodipodi-0.dtd"
   xmlns:inkscape="http://www.inkscape.org/namespaces/inkscape"
   width="48"
   height="48"
   id="svg2"
   version="1.1"
   inkscape:version="0.48.4 r9939"
   sodipodi:docname="wifi.svg"
   inkscape:export-filename="/home/michael/programming/android/Ahoy/res/drawable/wifi_0.png"
   inkscape:export-xdpi="90"
   inkscape:export-ydpi="90">
  <defs
     id="defs4" />
  <sodipodi:namedview
     id="base"
     pagecolor="#ffffff"
     bordercolor="#666666"
     borderopacity="1.0"
     inkscape:pageopacity="0.0"
     inkscape:pageshadow="2"
     inkscape:zoom="11.2"
     inkscape:cx="20.05818"
     inkscape:cy="16.514104"
     inkscape:document-units="px"
     inkscape:current-layer="layer1"
     showgrid="false"
     showguides="true"
     inkscape:guide-bbox="true"
     inkscape:window-width="1366"
     inkscape:window-height="719"
     inkscape:window-x="0"
     inkscape:window-y="22"
     inkscape:window-maximized="1"
     fit-margin-top="0"
     fit-margin-left="0"
     fit-margin-right="0"
     fit-margin-bottom="0">
    <inkscape:grid
       type="xygrid"
       id="grid3810"
       empspacing="5"
       visible="true"
       enabled="true"
       snapvisiblegridlinesonly="true"
       originx="-314.72934px"
       originy="-428.67706px" />
  </sodipodi:namedview>
  <metadata
     id="metadata7">
    <rdf:RDF>
      <cc:Work
         rdf:about="">
        <dc:format>image/svg+xml</dc:format>
        <dc:type
           rdf:resource="http://purl.org/dc/dcmitype/StillImage" />
        <dc:title></dc:title>
      </cc:Work>
    </rdf:RDF>
  </metadata>
  <g
     inkscape:label="Layer 1"
     inkscape:groupmode="layer"
     id="layer1"
     transform="translate(-314.72934,-575.68512)">
    <path
       style="fill:#8c8c8c;fill-opacity:1;stroke:none"
       d="m 338.375,607.71875 c -1.6123,0 -3.08523,0.53719 -4.28125,1.4375 l 4.5625,5.4375 4.375,-5.1875 c -1.24794,-1.06281 -2.88861,-1.6875 -4.65625,-1.6875 z"
       id="path3780"
       inkscape:connector-curvature="0" />
    <path
       style="fill:#8c8c8c;fill-opacity:0.3764706;stroke:none"
       d="m 338.625,585.71875 c -7.07012,0 -13.54026,2.5343 -18.5625,6.75 l 3.53125,4.21875 c 4.06672,-3.41438 9.30575,-5.46875 15.03125,-5.46875 5.74129,0 11.02234,2.06871 15.09375,5.5 l 3.53125,-4.1875 c -5.03157,-4.24944 -11.52341,-6.8125 -18.625,-6.8125 z"
       id="path3911"
       inkscape:connector-curvature="0" />
    <path
       style="fill:#8c8c8c;fill-opacity:0.3764706;stroke:none"
       d="m 338.625,592.96875 c -5.29393,0 -10.11343,1.90709 -13.875,5.0625 l 3.53125,4.21875 c 2.76354,-2.21224 6.27848,-3.53125 10.09375,-3.53125 3.98061,0 7.62221,1.45608 10.4375,3.84375 l 3.78125,-4.5 c -3.76896,-3.18207 -8.64995,-5.09375 -13.96875,-5.09375 z"
       id="path3917"
       inkscape:connector-curvature="0" />
    <path
       style="fill:#8c8c8c;fill-opacity:1;stroke:none"
       d="m 338.375,600.46875 c -3.38311,0 -6.47974,1.17205 -8.9375,3.125 l 3.53125,4.21875 c 1.50017,-1.15186 3.36871,-1.84375 5.40625,-1.84375 2.19643,0 4.19774,0.80621 5.75,2.125 l 3.5625,-4.21875 c -2.51062,-2.13038 -5.76188,-3.40625 -9.3125,-3.40625 z"
       id="path3922"
       inkscape:connector-curvature="0" />
  </g>
</svg>
